# Blender v2.91.0 OBJ File: ''
# www.blender.org
mtllib lego.mtl
o Circle
v 0.413456 1.452678 -0.618782
v 0.284793 1.452678 -0.687554
v 0.145186 1.452678 -0.729903
v 0.145186 1.193460 -0.729903
v 0.284793 1.193460 -0.687554
v 0.413456 1.193460 -0.618782
v 0.526230 1.193460 -0.526231
v 0.618781 1.193460 -0.413457
v 0.687553 1.193460 -0.284795
v 0.729902 1.193460 -0.145187
v 0.744202 1.193460 -0.000001
v 0.729903 1.193460 0.145186
v 0.687553 1.193460 0.284793
v 0.618782 1.193460 0.413456
v 0.526231 1.193460 0.526230
v 0.413457 1.193460 0.618781
v 0.284794 1.193460 0.687553
v 0.145187 1.193460 0.729902
v 0.000000 1.193460 0.744202
v -0.145186 1.193460 0.729903
v -0.284794 1.193460 0.687553
v -0.413457 1.193460 0.618782
v -0.526230 1.193460 0.526230
v -0.618782 1.193460 0.413456
v -0.687553 1.193460 0.284794
v -0.729903 1.193460 0.145186
v -0.413457 1.193460 -0.618782
v -0.744202 1.193460 -0.000000
v -0.729903 1.193460 -0.145187
v -0.687553 1.193460 -0.284794
v -0.618782 1.193460 -0.413457
v 1.000000 1.193460 -1.000000
v 1.000000 -0.002175 -1.000000
v 1.000000 1.193460 1.000000
v 1.000000 -0.002175 1.000000
v -1.000000 1.193460 -1.000000
v -1.000000 -0.002175 -1.000000
v -1.000000 1.193460 1.000000
v -1.000000 -0.002175 1.000000
v -0.284794 1.193460 -0.687553
v -0.526230 1.193460 -0.526230
v -0.145187 1.193460 -0.729903
v -0.000000 1.193460 -0.744202
v 0.526230 1.452678 -0.526231
v 0.618781 1.452678 -0.413457
v 0.687553 1.452678 -0.284795
v 0.729902 1.452678 -0.145187
v 0.744202 1.452678 -0.000001
v 0.729903 1.452678 0.145186
v 0.687553 1.452678 0.284793
v 0.618782 1.452678 0.413456
v 0.526231 1.452678 0.526230
v 0.413457 1.452678 0.618781
v 0.284794 1.452678 0.687553
v 0.145187 1.452678 0.729902
v 0.000000 1.452678 0.744202
v -0.145186 1.452678 0.729903
v -0.284794 1.452678 0.687553
v -0.413457 1.452678 0.618782
v -0.526230 1.452678 0.526230
v -0.618782 1.452678 0.413456
v -0.687553 1.452678 0.284794
v -0.729903 1.452678 0.145186
v -0.413457 1.452678 -0.618782
v -0.744202 1.452678 -0.000000
v -0.729903 1.452678 -0.145187
v -0.687553 1.452678 -0.284794
v -0.618782 1.452678 -0.413457
v -0.284794 1.452678 -0.687553
v -0.526230 1.452678 -0.526230
v -0.145187 1.452678 -0.729903
v -0.000000 1.452678 -0.744202
vn -0.5774 0.5774 -0.5774
vn 0.5774 0.5774 0.5774
vn 0.5774 0.5774 -0.5774
vn -0.5774 -0.5774 0.5774
vn 0.5774 -0.5774 0.5774
vn -0.5774 0.5774 0.5774
vn -0.5774 -0.5774 -0.5774
vn 0.5774 -0.5774 -0.5774
vn -0.8315 0.0000 -0.5556
vn -0.5147 0.6857 -0.5147
vn -0.7071 0.0000 -0.7071
vn 0.1951 0.0000 0.9808
vn 0.0000 0.6857 0.7279
vn 0.0000 0.0000 1.0000
vn 0.3827 0.0000 -0.9239
vn 0.4044 0.6857 -0.6052
vn 0.5556 0.0000 -0.8315
vn -0.4044 0.6857 -0.6052
vn -0.5556 0.0000 -0.8315
vn -0.1420 0.6857 0.7139
vn -0.1951 0.0000 0.9808
vn -0.1951 0.0000 -0.9808
vn -0.0000 0.6857 -0.7279
vn -0.0000 0.0000 -1.0000
vn 0.5147 0.6857 -0.5147
vn 0.7071 0.0000 -0.7071
vn -0.2785 0.6857 -0.6725
vn -0.3827 0.0000 -0.9239
vn -0.2785 0.6857 0.6725
vn -0.3827 0.0000 0.9239
vn 0.6052 0.6857 -0.4044
vn 0.8315 0.0000 -0.5556
vn -0.4044 0.6857 0.6052
vn -0.5556 0.0000 0.8315
vn 0.6725 0.6857 -0.2786
vn 0.9239 0.0000 -0.3827
vn -0.5147 0.6857 0.5147
vn -0.7071 0.0000 0.7071
vn 0.7139 0.6857 -0.1420
vn 0.9808 0.0000 -0.1951
vn -0.6052 0.6857 0.4044
vn -0.8315 0.0000 0.5556
vn 0.7279 0.6857 -0.0000
vn 1.0000 0.0000 -0.0000
vn -0.6725 0.6857 0.2785
vn -0.9239 0.0000 0.3827
vn 0.7139 0.6857 0.1420
vn 0.9808 0.0000 0.1951
vn -0.7139 0.6857 0.1420
vn -0.9808 0.0000 0.1951
vn 0.6725 0.6857 0.2786
vn 0.9239 0.0000 0.3827
vn -0.7279 0.6857 -0.0000
vn -1.0000 0.0000 0.0000
vn 0.6052 0.6857 0.4044
vn 0.8315 0.0000 0.5556
vn -0.7139 0.6857 -0.1420
vn -0.9808 0.0000 -0.1951
vn 0.5147 0.6857 0.5147
vn 0.7071 0.0000 0.7071
vn -0.6725 0.6857 -0.2786
vn -0.9239 0.0000 -0.3827
vn 0.4044 0.6857 0.6052
vn 0.5556 0.0000 0.8315
vn -0.1420 0.6857 -0.7139
vn 0.2786 0.6857 0.6725
vn 0.3827 0.0000 0.9239
vn 0.1420 0.6857 -0.7139
vn 0.1951 0.0000 -0.9808
vn -0.6052 0.6857 -0.4044
vn 0.1420 0.6857 0.7139
vn 0.2785 0.6857 -0.6725
usemtl Material
s 1
f 36//1 34//2 32//3
f 34//2 39//4 35//5
f 38//6 37//7 39//4
f 33//8 39//4 37//7
f 32//3 35//5 33//8
f 36//1 33//8 37//7
f 31//9 70//10 41//11
f 18//12 56//13 19//14
f 5//15 1//16 6//17
f 41//11 64//18 27//19
f 19//14 57//20 20//21
f 42//22 72//23 43//24
f 6//17 44//25 7//26
f 27//19 69//27 40//28
f 20//21 58//29 21//30
f 7//26 45//31 8//32
f 21//30 59//33 22//34
f 8//32 46//35 9//36
f 22//34 60//37 23//38
f 9//36 47//39 10//40
f 23//38 61//41 24//42
f 10//40 48//43 11//44
f 24//42 62//45 25//46
f 11//44 49//47 12//48
f 25//46 63//49 26//50
f 12//48 50//51 13//52
f 26//50 65//53 28//54
f 13//52 51//55 14//56
f 28//54 66//57 29//58
f 14//56 52//59 15//60
f 29//58 67//61 30//62
f 15//60 53//63 16//64
f 40//28 71//65 42//22
f 16//64 54//66 17//67
f 43//24 3//68 4//69
f 30//62 68//70 31//9
f 17//67 55//71 18//12
f 4//69 2//72 5//15
f 3//68 72//23 71//65
f 71//65 1//16 3//68
f 69//27 1//16 71//65
f 1//16 2//72 3//68
f 64//18 44//25 69//27
f 70//10 67//61 64//18
f 59//33 58//29 57//20
f 62//45 60//37 59//33
f 44//25 67//61 45//31
f 67//61 46//35 45//31
f 47//39 46//35 67//61
f 47//39 67//61 66//57
f 48//43 47//39 66//57
f 48//43 66//57 65//53
f 49//47 48//43 65//53
f 63//49 62//45 65//53
f 62//45 57//20 56//13
f 49//47 62//45 51//55
f 50//51 49//47 51//55
f 59//33 57//20 62//45
f 62//45 61//41 60//37
f 53//63 52//59 51//55
f 70//10 68//70 67//61
f 67//61 44//25 64//18
f 53//63 62//45 54//66
f 56//13 55//71 54//66
f 62//45 56//13 54//66
f 62//45 49//47 65//53
f 44//25 1//16 69//27
f 62//45 53//63 51//55
f 36//1 38//6 34//2
f 34//2 38//6 39//4
f 38//6 36//1 37//7
f 33//8 35//5 39//4
f 32//3 34//2 35//5
f 36//1 32//3 33//8
f 31//9 68//70 70//10
f 18//12 55//71 56//13
f 5//15 2//72 1//16
f 41//11 70//10 64//18
f 19//14 56//13 57//20
f 42//22 71//65 72//23
f 6//17 1//16 44//25
f 27//19 64//18 69//27
f 20//21 57//20 58//29
f 7//26 44//25 45//31
f 21//30 58//29 59//33
f 8//32 45//31 46//35
f 22//34 59//33 60//37
f 9//36 46//35 47//39
f 23//38 60//37 61//41
f 10//40 47//39 48//43
f 24//42 61//41 62//45
f 11//44 48//43 49//47
f 25//46 62//45 63//49
f 12//48 49//47 50//51
f 26//50 63//49 65//53
f 13//52 50//51 51//55
f 28//54 65//53 66//57
f 14//56 51//55 52//59
f 29//58 66//57 67//61
f 15//60 52//59 53//63
f 40//28 69//27 71//65
f 16//64 53//63 54//66
f 43//24 72//23 3//68
f 30//62 67//61 68//70
f 17//67 54//66 55//71
f 4//69 3//68 2//72
